<?xml version="1.0" standalone="no"?>
<!DOCTYPE svg PUBLIC "-//W3C//DTD SVG 1.0//EN" "http://www.w3.org/TR/2001/REC-SVG-20010904/DTD/svg10.dtd">
<svg xmlns="http://www.w3.org/2000/svg" xmlns:xlink="http://www.w3.org/1999/xlink" id="body_1" width="136" height="34">

<g transform="matrix(0.20000002 0 0 0.20238096 0 0)">
    <path transform="matrix(1 0 0 1 37 30)"  d="M0 0C 3.3360038 2.0583851 4.8262177 3.7393265 7 7C 7 19.87 7 32.74 7 46C 44.95 46 82.9 46 122 46C 122 32.8 122 19.6 122 6C 128.2014 -0.20140105 128.2014 -0.20140105 132.1875 -0.375C 135.76295 -0.35219008 137.73189 0.08507439 140.5 2.375C 144.70161 6.786695 144.15993 10.48005 144.177 16.311523C 144.18358 17.277534 144.19014 18.243546 144.19691 19.23883C 144.21667 22.445679 144.22832 25.652481 144.23828 28.859375C 144.24236 29.953308 144.24643 31.047241 144.25063 32.174324C 144.2715 37.964848 144.2858 43.755344 144.29517 49.5459C 144.30623 55.52933 144.34062 61.51239 144.38034 67.4957C 144.40648 72.09394 144.41486 76.6921 144.41844 81.29041C 144.42332 83.49602 144.43495 85.70162 144.45349 87.90716C 144.47781 90.99537 144.47693 94.08262 144.46997 97.1709C 144.48918 98.53644 144.48918 98.53644 144.50879 99.929565C 144.46237 105.58989 143.68092 108.64241 140 113C 136.79214 115.352425 133.9035 115.46842 130 115C 124.60556 112.24989 123.87094 110.74188 121 105C 121 93.12 121 81.24 121 69C 83.38 69 45.76 69 7 69C 7 81.54 7 94.08 7 107C 0.16386434 114.975494 0.16386434 114.975494 -3.4375 115.3125C -7.225441 115.47914 -9.106358 114.59986 -12 112.1875C -15.89594 108.39076 -15.89594 108.39076 -16.134222 105.20613C -16.138494 104.477036 -16.142769 103.74794 -16.147171 102.99675C -16.154325 102.15981 -16.161482 101.32287 -16.168854 100.46057C -16.171543 99.54054 -16.174232 98.620514 -16.177002 97.67261C -16.183573 96.70499 -16.190144 95.73737 -16.196915 94.74043C -16.216673 91.52878 -16.228315 88.31717 -16.238281 85.10547C -16.242357 84.010284 -16.246431 82.91511 -16.250631 81.786736C -16.271503 75.99088 -16.2858 70.19505 -16.295166 64.39917C -16.306236 58.40667 -16.340641 52.414543 -16.380339 46.422176C -16.406458 41.81968 -16.414854 37.217274 -16.418447 32.614708C -16.423325 30.405485 -16.434973 28.196264 -16.453485 25.987112C -16.47778 22.8963 -16.47693 19.806454 -16.46997 16.715576C -16.48278 15.8016205 -16.49559 14.887666 -16.50879 13.946014C -16.474936 9.82434 -16.365229 7.5913506 -14.158127 4.0177765C -9.564325 -0.27727416 -6.0785384 -0.8866761 0 0z" stroke="none" fill="#020202" fill-rule="nonzero" />
    <path transform="matrix(1 0 0 1 388.11713 73.8461)"  d="M0 0C 0.8621814 -0.00860046 1.7243627 -0.01720093 2.612671 -0.02606201C 3.5607512 -0.03032196 4.5088315 -0.03458191 5.4856415 -0.03897095C 6.4825196 -0.04714844 7.4793983 -0.05532593 8.506485 -0.06375122C 11.815531 -0.08862636 15.124533 -0.10512596 18.43364 -0.11953735C 19.561918 -0.12486103 20.690197 -0.13018471 21.852667 -0.13566971C 27.82358 -0.16240944 33.79447 -0.18178245 39.765427 -0.19619751C 45.939606 -0.21285483 52.11325 -0.2576399 58.287228 -0.30856895C 63.028694 -0.34218678 67.77003 -0.35376894 72.511604 -0.3594246C 74.78783 -0.36615127 77.06405 -0.38140982 79.34016 -0.4053154C 82.52451 -0.43685392 85.70742 -0.43702036 88.89189 -0.42959595C 89.8339 -0.4460013 90.77591 -0.4624066 91.74646 -0.47930908C 96.3665 -0.4351672 98.23874 -0.3665297 101.94479 2.6278687C 102.58436 3.4614592 103.223915 4.2950497 103.88286 5.1539C 104.21286 5.4839 104.54286 5.8139 104.88286 6.1539C 105.25786 9.4039 105.25786 9.4039 104.88286 13.1539C 102.71011 15.784061 100.93612 17.62727 97.88286 19.1539C 94.955284 19.214117 92.05202 19.213243 89.125534 19.168793C 87.24363 19.149351 85.361725 19.130398 83.47981 19.111862C 81.97736 19.095121 81.97736 19.095121 80.444565 19.078043C 74.02356 19.01703 67.6022 19.016743 61.180958 19.005438C 55.54211 18.992031 49.904957 18.957382 44.266647 18.876312C 38.81066 18.799057 33.357258 18.78105 27.900799 18.80213C 25.82843 18.799685 23.755968 18.776176 21.684101 18.730509C 8.452979 18.244236 8.452979 18.244236 -2.84128 24.248598C -6.9913564 28.487871 -9.630115 32.00785 -10.117142 38.1539C -9.559994 38.149292 -9.002846 38.144684 -8.428815 38.139935C 5.1337996 38.029465 18.696335 37.947067 32.259304 37.89484C 38.818317 37.868732 45.37701 37.833313 51.935837 37.776703C 58.264133 37.722424 64.59212 37.692486 70.92063 37.679512C 73.336426 37.67027 75.7522 37.65221 78.167854 37.625248C 81.54874 37.589012 84.92832 37.583954 88.30937 37.586273C 89.31062 37.5683 90.31188 37.55032 91.343475 37.5318C 98.16703 37.582558 98.16703 37.582558 101.9812 40.626877C 102.60875 41.460796 103.2363 42.294712 103.88286 43.1539C 104.21286 43.483902 104.54286 43.8139 104.88286 44.1539C 105.221344 48.374676 105.20804 52.608807 105.25786 56.8414C 105.313934 58.61934 105.313934 58.61934 105.37114 60.433197C 105.470474 70.27311 105.470474 70.27311 103.2227 73.962494C 97.81619 77.509926 92.37172 76.78317 86.07036 76.5289C 84.17254 76.4883 84.17254 76.4883 82.236374 76.44687C 79.116806 76.376236 76.0007 76.27763 72.88286 76.1539C 73.81127 75.04887 74.7429 73.94653 75.67583 72.84531C 76.194275 72.23115 76.712715 71.61699 77.24687 70.98422C 78.81302 69.23203 80.462105 67.67559 82.19536 66.0914C 85.165115 62.84539 85.38403 61.38513 85.88286 57.1539C 85.325714 57.15851 84.76856 57.163116 84.194534 57.167866C 70.63192 57.278336 57.06938 57.360733 43.506413 57.41296C 36.9474 57.439068 30.388708 57.474487 23.82988 57.531097C 17.501581 57.585377 11.173596 57.615314 4.845083 57.628284C 2.4292936 57.63753 0.01352112 57.65559 -2.4021358 57.68255C -5.7830195 57.71879 -9.162609 57.723846 -12.543655 57.721527C -13.5449095 57.739502 -14.546164 57.75748 -15.577759 57.776C -22.401318 57.725243 -22.401318 57.725243 -26.215485 54.680923C -26.84303 53.847004 -27.47058 53.01309 -28.117142 52.1539C -28.447142 51.8239 -28.777142 51.4939 -29.117142 51.1539C -29.512497 46.976463 -29.535759 42.78488 -29.617142 38.5914C -29.671282 37.422867 -29.725424 36.25433 -29.781204 35.050385C -29.870436 29.40012 -29.90195 25.247107 -26.105423 20.8414C -24.799158 19.587645 -23.468493 18.358921 -22.117142 17.1539C -20.740038 15.744383 -19.369047 14.32887 -18.00386 12.907806C -16.606728 11.508064 -15.206973 10.110934 -13.804642 8.7164C -13.089856 7.997748 -12.375072 7.2790956 -11.638626 6.538666C -10.954779 5.856107 -10.270931 5.1735487 -9.56636 4.4703064C -8.951075 3.8561487 -8.335789 3.241991 -7.7018585 2.6092224C -5.1233034 0.24121004 -3.4014199 0.02523061 0 0z" stroke="none" fill="#010101" fill-rule="nonzero" />
    <path transform="matrix(1 0 0 1 521.5 24.4375)"  d="M0 0C 0.9384375 -0.02191406 1.876875 -0.04382813 2.84375 -0.06640625C 5.5 0.5625 5.5 0.5625 9.5 5.5625C 9.5 16.1225 9.5 26.6825 9.5 37.5625C 40.85 37.5625 72.2 37.5625 104.5 37.5625C 104.5 27.0025 104.5 16.4425 104.5 5.5625C 108.5 0.5625 108.5 0.5625 111.15625 -0.06640625C 112.09469 -0.04449219 113.03313 -0.02257812 114 0C 114.93844 -0.00128906 115.87688 -0.00257812 116.84375 -0.00390625C 120.34158 0.741955 121.346214 1.7070204 123.5 4.5625C 123.89977 7.4165435 124.05755 9.886367 124.03345 12.73999C 124.04206 13.561596 124.05068 14.383203 124.059555 15.229706C 124.082245 17.943823 124.07547 20.65691 124.06641 23.371094C 124.07164 25.259123 124.07792 27.14715 124.08519 29.035172C 124.0956 32.992077 124.09103 36.948627 124.076416 40.905518C 124.059235 45.974506 124.08271 51.04236 124.117905 56.11122C 124.13988 60.010357 124.138435 63.909218 124.13014 67.808395C 124.12932 69.67709 124.13619 71.545815 124.15091 73.41446C 124.16835 76.028885 124.153824 78.64127 124.1311 81.255615C 124.14864 82.411446 124.14864 82.411446 124.166534 83.59062C 124.095436 87.615166 123.65556 89.37034 121.08946 92.54018C 117.86185 95.06088 116.37219 95.29721 112.43359 95.06641C 109.18547 94.219925 107.54367 92.1016 105.5 89.5625C 105.17 89.2325 104.84 88.9025 104.5 88.5625C 104.5 78.0025 104.5 67.4425 104.5 56.5625C 73.15 56.5625 41.8 56.5625 9.5 56.5625C 9.5 67.1225 9.5 77.6825 9.5 88.5625C 5.5 93.5625 5.5 93.5625 3.5 94.5625C -3.740876 95.14644 -3.740876 95.14644 -6.9375 92.6875C -9.846922 88.73069 -9.660421 85.44817 -9.677002 80.68799C -9.683573 79.874825 -9.690145 79.06165 -9.696915 78.22385C -9.716662 75.52683 -9.7283125 72.82988 -9.738281 70.13281C -9.742357 69.212906 -9.746432 68.293 -9.750631 67.345215C -9.771497 62.477703 -9.785797 57.61022 -9.795166 52.742676C -9.80624 47.709625 -9.840651 42.677017 -9.880338 37.64412C -9.906452 33.778545 -9.914853 29.913076 -9.9184475 26.04742C -9.923326 24.191832 -9.934975 22.33625 -9.9534855 20.480747C -9.977771 17.885406 -9.976932 15.29122 -9.969971 12.695801C -9.989185 11.543893 -9.989185 11.543893 -10.008789 10.368713C -9.974484 6.864106 -9.774177 4.9263697 -7.6366425 2.089569C -4.9436226 0.16485433 -3.2913914 -0.00452114 0 0z" stroke="none" fill="#020202" fill-rule="nonzero" />
    <path transform="matrix(1 0 0 1 202 25)"  d="M0 0C 6.27 0 12.54 0 19 0C 18.932968 2.5317187 18.865938 5.0634375 18.796875 7.671875C 18.772793 10.164443 18.76948 12.656253 18.768066 15.148926C 18.75617 16.861778 18.723173 18.574633 18.66748 20.286621C 18.590488 22.772184 18.593246 25.247864 18.609375 27.734375C 18.569313 28.48177 18.529251 29.229164 18.487976 29.999207C 18.65453 36.44601 22.269588 40.70771 26.680643 45.07059C 33.086178 50.662773 40.04361 50.710785 48.16797 50.523438C 49.69869 50.52645 51.2294 50.533333 52.760086 50.543854C 55.94768 50.55246 59.131187 50.51931 62.318115 50.45459C 66.38185 50.37479 70.43798 50.393726 74.50196 50.443058C 77.65547 50.47156 80.807236 50.451157 83.960625 50.416035C 85.45754 50.40443 86.954636 50.4068 88.4515 50.424084C 97.19702 50.55723 97.19702 50.55723 104.83609 46.750793C 107.25007 44.10952 107.25007 44.10952 109.19502 41.33365C 111 39 111 39 115 37C 115 24.79 115 12.58 115 0C 121.27 0 127.54 0 134 0C 134.13821 5.979133 134.2575 11.952667 134.32959 17.932129C 134.35965 19.963245 134.40051 21.994232 134.45264 24.024902C 134.52591 26.954426 134.55956 29.882223 134.58594 32.8125C 134.6169 33.71178 134.64787 34.611065 134.67978 35.537598C 134.6834 42.39569 132.6081 46.021553 128 51C 127.31148 51.773922 126.622955 52.54784 125.913574 53.345215C 125.30014 53.960903 124.68671 54.57659 124.05469 55.210938C 123.37019 55.898006 122.6857 56.58508 121.98047 57.29297C 121.28567 57.980038 120.59086 58.66711 119.875 59.375C 119.17246 60.085274 118.469925 60.795547 117.74609 61.527344C 117.06418 62.20668 116.38226 62.886017 115.67969 63.585938C 115.06851 64.194855 114.45734 64.80378 113.82764 65.43115C 109.53485 69.11609 105.59456 69.31856 100.08545 69.36987C 99.29138 69.38462 98.497314 69.39937 97.679184 69.414566C 95.05437 69.45904 92.42976 69.487305 89.80469 69.51172C 88.905136 69.52112 88.005585 69.53052 87.078766 69.5402C 82.314575 69.58775 77.5505 69.62144 72.78613 69.64526C 67.88294 69.67293 62.982 69.75205 58.07963 69.842804C 54.294434 69.90283 50.509758 69.922554 46.724125 69.93177C 44.91802 69.943306 43.11194 69.970024 41.3063 70.0127C 25.4453 70.36527 25.4453 70.36527 19.047363 64.66675C 17.662457 63.142937 16.309523 61.58906 15 60C 13.763583 58.780346 12.516115 57.57161 11.25 56.382812C 10.164081 55.29946 9.080666 54.213593 8 53.125C 7.441836 52.5707 6.8836718 52.016407 6.3085938 51.445312C 0.1506828 45.272564 0.1506828 45.272564 -0.24050903 41.968826C -0.23606782 41.193832 -0.23162659 40.41884 -0.22705078 39.62036C -0.22689971 38.739674 -0.22674866 37.85899 -0.22659302 36.951614C -0.21627045 36.00465 -0.20594788 35.05769 -0.1953125 34.08203C -0.1924826 33.10965 -0.18965271 32.137268 -0.18673706 31.135422C -0.17553599 28.027657 -0.15043148 24.920177 -0.125 21.8125C -0.11497011 19.706385 -0.10584427 17.600264 -0.09765625 15.494141C -0.07559688 10.329316 -0.04106746 5.1647067 0 0z" stroke="none" fill="#020202" fill-rule="nonzero" />
    <path transform="matrix(1 0 0 1 475 25)"  d="M0 0C 6.27 0 12.54 0 19 0C 20.06788 8.305739 20.06788 8.305739 17.488281 12.3984375C 15.575719 14.526649 13.605265 16.552416 11.533203 18.52539C 9.783769 20.207968 8.087206 21.936047 6.390625 23.671875C 3.9507494 26.156641 1.5073571 28.63718 -0.9609375 31.09375C -1.4744678 31.606152 -1.987998 32.118553 -2.5170898 32.646484C -5.4068923 35.28413 -7.3226175 36.249832 -11.14801 36.280884C -11.991848 36.292305 -12.835685 36.303726 -13.705093 36.31549C -14.627735 36.317726 -15.550376 36.31996 -16.500977 36.322266C -17.47528 36.332195 -18.449585 36.342125 -19.453415 36.352356C -22.682514 36.381607 -25.911415 36.395206 -29.140625 36.40625C -31.384012 36.417755 -33.6274 36.429268 -35.87079 36.440796C -40.57842 36.46182 -45.28598 36.473503 -49.993652 36.48047C -56.020905 36.491432 -62.047253 36.53947 -68.07422 36.596413C -72.71027 36.633698 -77.34611 36.644077 -81.98229 36.64714C -84.20384 36.65319 -86.42539 36.66923 -88.6468 36.69551C -91.75904 36.7297 -94.86909 36.725857 -97.981445 36.71289C -98.89599 36.73132 -99.81053 36.74975 -100.75279 36.768738C -106.44572 36.694584 -109.53114 35.538708 -113.74773 31.684166C -115.62273 29.162506 -115.843544 26.976477 -115.56641 23.898438C -114.595276 20.643478 -112.62982 19.018232 -110 17C -106.055756 15.685251 -102.32796 15.921776 -98.22095 15.985107C -96.359344 16.004543 -94.497734 16.023499 -92.63612 16.042038C -91.153625 16.058779 -91.153625 16.058779 -89.641174 16.075857C -83.29669 16.136957 -76.95185 16.137152 -70.60712 16.148464C -65.037865 16.161873 -59.47032 16.196564 -53.90161 16.277588C -48.509304 16.354847 -43.119606 16.37285 -37.726818 16.35177C -35.67957 16.354214 -33.632225 16.377712 -31.585482 16.423391C -18.422249 16.900715 -18.422249 16.900715 -7.2930365 10.758817C -4.1349034 7.453608 -1.4692438 4.4077315 0 0z" stroke="none" fill="#080808" fill-rule="nonzero" />
    <path transform="matrix(1 0 0 1 213 107)"  d="M0 0C 3.4940677 1.6676232 4.826707 2.7400603 7 6C 7.171931 8.829832 7.2320843 11.558819 7.1953125 14.386719C 7.1924825 15.203728 7.189653 16.020737 7.186737 16.862503C 7.175545 19.470985 7.150443 22.079123 7.125 24.6875C 7.114969 26.456375 7.105843 28.225256 7.0976562 29.99414C 7.077311 34.329666 7.0381613 38.664448 7 43C 0.73 43 -5.54 43 -12 43C -12.138119 37.83847 -12.257416 32.683395 -12.32959 27.521484C -12.359683 25.767683 -12.400569 24.01403 -12.452637 22.260742C -12.52579 19.733349 -12.559528 17.20795 -12.5859375 14.6796875C -12.616905 13.901325 -12.647873 13.122963 -12.679779 12.321014C -12.682415 8.014791 -12.179112 5.665405 -9.154785 2.4926758C -6.148101 -0.25748125 -4.09843 -0.7848058 0 0z" stroke="none" fill="#020202" fill-rule="nonzero" />
    <path transform="matrix(1 0 0 1 325.5 107.3125)"  d="M0 0C 1.0982813 -0.03673828 1.0982813 -0.03673828 2.21875 -0.07421875C 5.7371454 1.100588 7.685224 3.5687418 9.5 6.6875C 10.145028 9.530805 10.087333 12.244835 9.988281 15.1484375C 9.981207 15.939006 9.974132 16.729574 9.966843 17.544098C 9.939014 20.051224 9.876305 22.556057 9.8125 25.0625C 9.787402 26.769499 9.764591 28.476532 9.744141 30.183594C 9.69349 34.35314 9.595635 38.517776 9.5 42.6875C 3.23 42.6875 -3.04 42.6875 -9.5 42.6875C -9.61498 37.50829 -9.714449 32.333527 -9.774658 27.154053C -9.799761 25.393484 -9.83385 23.633017 -9.877197 21.872803C -9.938041 19.338118 -9.966251 16.804813 -9.988281 14.269531C -10.014088 13.486008 -10.039894 12.702484 -10.066483 11.895218C -10.06865 7.6451187 -9.86533 6.145348 -7.1120605 2.6948242C -4.439704 0.64116335 -3.3124504 -0.01749534 0 0z" stroke="none" fill="#030303" fill-rule="nonzero" />
    <path transform="matrix(1 0 0 1 636.83984 132.5039)"  d="M0 0C 2.1601562 0.49609375 2.1601562 0.49609375 5.2226562 2.2460938C 8.240619 7.3084817 7.480368 11.668238 7.1601562 17.496094C 0.89015627 17.496094 -5.3798437 17.496094 -11.839844 17.496094C -12.509486 6.513951 -12.509486 6.513951 -9.902344 2.8085938C -6.3326025 0.11307484 -4.3837447 -0.35860348 0 0z" stroke="none" fill="#060606" fill-rule="nonzero" />
    <path transform="matrix(1 0 0 1 524 133)"  d="M0 0C 2.8100345 1.7936391 4.5094047 3.0188093 6 6C 6.1377683 9.670153 6.04272 13.326114 6 17C -0.27 17 -6.54 17 -13 17C -13.605296 5.9836063 -13.605296 5.9836063 -11 1.75C -7.166601 -0.48614934 -4.335426 -0.97218645 0 0z" stroke="none" fill="#050505" fill-rule="nonzero" />
</g>
</svg>
