<?xml version="1.0" standalone="no"?>
<!DOCTYPE svg PUBLIC "-//W3C//DTD SVG 1.0//EN" "http://www.w3.org/TR/2001/REC-SVG-20010904/DTD/svg10.dtd">
<svg xmlns="http://www.w3.org/2000/svg" xmlns:xlink="http://www.w3.org/1999/xlink" id="body_1" width="40" height="34">

<g transform="matrix(0.20000002 0 0 0.20238096 0 0)">
    <path transform="matrix(1 0 0 1 37 30)"  d="M0 0C 3.3360038 2.0583851 4.8262177 3.7393265 7 7C 7 19.87 7 32.74 7 46C 44.95 46 82.9 46 122 46C 122 32.8 122 19.6 122 6C 128.2014 -0.20140105 128.2014 -0.20140105 132.1875 -0.375C 135.76295 -0.35219008 137.73189 0.08507439 140.5 2.375C 144.70161 6.786695 144.15993 10.48005 144.177 16.311523C 144.18358 17.277534 144.19014 18.243546 144.19691 19.23883C 144.21667 22.445679 144.22832 25.652481 144.23828 28.859375C 144.24236 29.953308 144.24643 31.047241 144.25063 32.174324C 144.2715 37.964848 144.2858 43.755344 144.29517 49.5459C 144.30623 55.52933 144.34062 61.51239 144.38034 67.4957C 144.40648 72.09394 144.41486 76.6921 144.41844 81.29041C 144.42332 83.49602 144.43495 85.70162 144.45349 87.90716C 144.47781 90.99537 144.47693 94.08262 144.46997 97.1709C 144.48918 98.53644 144.48918 98.53644 144.50879 99.929565C 144.46237 105.58989 143.68092 108.64241 140 113C 136.79214 115.352425 133.9035 115.46842 130 115C 124.60556 112.24989 123.87094 110.74188 121 105C 121 93.12 121 81.24 121 69C 83.38 69 45.76 69 7 69C 7 81.54 7 94.08 7 107C 0.16386434 114.975494 0.16386434 114.975494 -3.4375 115.3125C -7.225441 115.47914 -9.106358 114.59986 -12 112.1875C -15.89594 108.39076 -15.89594 108.39076 -16.134222 105.20613C -16.138494 104.477036 -16.142769 103.74794 -16.147171 102.99675C -16.154325 102.15981 -16.161482 101.32287 -16.168854 100.46057C -16.171543 99.54054 -16.174232 98.620514 -16.177002 97.67261C -16.183573 96.70499 -16.190144 95.73737 -16.196915 94.74043C -16.216673 91.52878 -16.228315 88.31717 -16.238281 85.10547C -16.242357 84.010284 -16.246431 82.91511 -16.250631 81.786736C -16.271503 75.99088 -16.2858 70.19505 -16.295166 64.39917C -16.306236 58.40667 -16.340641 52.414543 -16.380339 46.422176C -16.406458 41.81968 -16.414854 37.217274 -16.418447 32.614708C -16.423325 30.405485 -16.434973 28.196264 -16.453485 25.987112C -16.47778 22.8963 -16.47693 19.806454 -16.46997 16.715576C -16.48278 15.8016205 -16.49559 14.887666 -16.50879 13.946014C -16.474936 9.82434 -16.365229 7.5913506 -14.158127 4.0177765C -9.564325 -0.27727416 -6.0785384 -0.8866761 0 0z" stroke="none" fill="#020202" fill-rule="nonzero" />
</g>
</svg>
